<svg width="292" height="320" viewBox="0 0 292 320" fill="none" xmlns="http://www.w3.org/2000/svg">
<path d="M283.002 320H205.315C202.659 319.999 200.043 319.348 197.697 318.104C195.35 316.859 193.345 315.06 191.856 312.862L0.5 29.4331V14.0384C0.5 10.3152 1.98059 6.74443 4.61618 4.11173C7.25178 1.47902 10.8264 1.38478e-05 14.5537 1.38478e-05H74.6049C77.2622 -0.00345739 79.8797 0.645725 82.2269 1.89043C84.574 3.13513 86.5787 4.93716 88.0646 7.13786L290.164 306.436C291.064 307.737 291.59 309.259 291.685 310.837C291.779 312.415 291.439 313.989 290.7 315.388C289.962 316.786 288.854 317.955 287.496 318.768C286.139 319.582 284.584 320.008 283.002 320V320Z" fill="url(#paint0_linear_1401_73976)"/>
<path d="M74.5879 0H14.5538C6.7921 0 0.5 6.28519 0.5 14.0384V305.894C0.5 313.647 6.7921 319.932 14.5538 319.932H74.5879C82.3496 319.932 88.6417 313.647 88.6417 305.894V14.0384C88.6417 6.28519 82.3496 0 74.5879 0Z" fill="url(#paint1_linear_1401_73976)"/>
<path d="M290.164 13.4619L87.9798 312.794C86.4955 314.993 84.4934 316.793 82.1495 318.038C79.8056 319.282 77.1915 319.933 74.537 319.932H14.5537C10.8264 319.932 7.25178 318.453 4.61618 315.82C1.98059 313.188 0.5 309.617 0.5 305.894V290.448L191.805 7.13787C193.289 4.93955 195.291 3.13901 197.635 1.89443C199.979 0.649844 202.593 -0.000665499 205.248 2.69284e-05H282.985C284.555 -0.00389048 286.096 0.419674 287.444 1.22526C288.791 2.03084 289.893 3.18798 290.631 4.57224C291.369 5.95649 291.716 7.51555 291.634 9.08184C291.552 10.6481 291.044 12.1624 290.164 13.4619V13.4619Z" fill="url(#paint2_linear_1401_73976)"/>
<defs>
<linearGradient id="paint0_linear_1401_73976" x1="244.388" y1="321.543" x2="42.1103" y2="7.20673" gradientUnits="userSpaceOnUse">
<stop offset="0.15" stop-color="#0C6070"/>
<stop offset="0.51" stop-color="#096B6E"/>
<stop offset="0.99" stop-color="#07756D"/>
</linearGradient>
<linearGradient id="paint1_linear_1401_73976" x1="44.5793" y1="1.61068" x2="44.5793" y2="310.692" gradientUnits="userSpaceOnUse">
<stop offset="0.14" stop-color="#07756D"/>
<stop offset="0.35" stop-color="#058977"/>
<stop offset="0.76" stop-color="#01BB8F"/>
<stop offset="0.85" stop-color="#00C795"/>
</linearGradient>
<linearGradient id="paint2_linear_1401_73976" x1="37.7561" y1="315.592" x2="241.732" y2="4.62633" gradientUnits="userSpaceOnUse">
<stop stop-color="#00C795"/>
<stop offset="0.19" stop-color="#02CB94"/>
<stop offset="0.39" stop-color="#09D892"/>
<stop offset="0.59" stop-color="#13EC8F"/>
<stop offset="0.66" stop-color="#18F58E"/>
</linearGradient>
</defs>
</svg>
